<?xml version="1.0" encoding="UTF-8" standalone="no"?>
<svg
   xmlns:dc="http://purl.org/dc/elements/1.1/"
   xmlns:cc="http://creativecommons.org/ns#"
   xmlns:rdf="http://www.w3.org/1999/02/22-rdf-syntax-ns#"
   xmlns:svg="http://www.w3.org/2000/svg"
   xmlns="http://www.w3.org/2000/svg"
   xmlns:sodipodi="http://sodipodi.sourceforge.net/DTD/sodipodi-0.dtd"
   xmlns:inkscape="http://www.inkscape.org/namespaces/inkscape"
   viewBox="0 0 100 125"
   version="1.1"
   x="0px"
   y="0px"
   id="svg14"
   sodipodi:docname="icon.svg"
   inkscape:version="0.92.4 (fd57863, 2020-04-02)">
  <metadata
     id="metadata20">
    <rdf:RDF>
      <cc:Work
         rdf:about="">
        <dc:format>image/svg+xml</dc:format>
        <dc:type
           rdf:resource="http://purl.org/dc/dcmitype/StillImage" />
      </cc:Work>
    </rdf:RDF>
  </metadata>
  <defs
     id="defs18" />
  <sodipodi:namedview
     pagecolor="#ffffff"
     bordercolor="#666666"
     borderopacity="1"
     objecttolerance="10"
     gridtolerance="10"
     guidetolerance="10"
     inkscape:pageopacity="0"
     inkscape:pageshadow="2"
     inkscape:window-width="1874"
     inkscape:window-height="1016"
     id="namedview16"
     showgrid="false"
     inkscape:zoom="1.888"
     inkscape:cx="50"
     inkscape:cy="62.5"
     inkscape:window-x="46"
     inkscape:window-y="27"
     inkscape:window-maximized="1"
     inkscape:current-layer="svg14" />
  <title
     id="title2">i10</title>
  <desc
     id="desc4">Created with Sketch.</desc>
  <g
     id="g8"
     transform="translate(0.52966102,12.711864)"
     style="fill:#d45500;fill-opacity:1;fill-rule:evenodd;stroke:none;stroke-width:1">
    <path
       d="m 87.695153,56.218537 c -0.067,6.453456 -0.137088,13.127491 -15.750721,13.127491 -3.256105,0 -7.121375,-0.173165 -9.872418,-2.157337 -1.638875,-1.181227 -2.446974,-3.070571 -2.88813,-4.982592 -0.489601,-2.12023 -0.884374,-4.372394 -1.004971,-6.545192 -0.0804,-1.428604 0.01752,-2.931422 0.699872,-4.218815 1.866668,-3.523065 7.847016,-5.025883 17.579253,-5.025883 1.393558,0 2.756195,0.02474 4.050803,0.04845 0.02886,0 0.05669,0.001 0.08555,0.001 3.915777,0.07318 7.119313,2.906684 7.119313,6.302968 0,0 -0.0134,3.01285 -0.01855,3.449884 m -46.404897,4.772321 c -0.210271,1.080214 -0.484447,2.143937 -0.873036,3.147876 -0.338082,0.872006 -0.820468,1.679074 -1.482202,2.344931 -2.09137,2.108892 -5.392826,2.599524 -8.21602,2.786088 -0.826653,0.0536 -1.655367,0.07628 -2.484081,0.07628 -15.613633,0 -15.683724,-6.674035 -15.750722,-13.127491 -0.0052,-0.437034 -0.01855,-3.449884 -0.01855,-3.449884 0,-3.396284 3.203537,-6.229786 7.119314,-6.302968 0.02886,0 0.05669,-10e-4 0.08555,-10e-4 1.293577,-0.02371 2.657245,-0.04845 4.050804,-0.04845 9.732237,0 15.711553,1.502818 17.579253,5.025883 0.911173,1.719273 0.799853,3.792089 0.564844,5.660819 -0.159764,1.271931 -0.322621,2.592308 -0.575152,3.887947 M 62.218382,29.14103 59.267377,33.922628 c -0.494755,0.801915 -0.269023,1.783178 0.546291,2.373792 1.149274,0.833867 2.931422,0.542168 3.618925,-0.592675 l 2.672706,-4.40744 c 0.930757,-1.533739 3.352993,-1.903775 4.873333,-0.745224 l 14.73029,12.299807 c -8.186128,-0.213363 -19.438705,0.251501 -27.838197,3.534404 -6.69671,2.617046 -9.141623,2.72012 -15.783705,0 C 33.72154,42.959111 22.575129,42.49734 14.413739,42.74884 L 29.022401,30.551076 c 1.51931,-1.158551 3.942577,-0.788515 4.872303,0.745224 l 2.672706,4.40744 c 0.688534,1.134843 2.469651,1.426542 3.619955,0.592675 0.815315,-0.590614 1.041047,-1.571877 0.546292,-2.373792 L 37.781621,29.141025 C 35.791264,25.915843 30.783934,24.994362 27.356727,27.22282 L 5,42.602475 v 5.159879 c 1.0668148,0.745225 2.4263594,2.211966 3.1118008,5.041345 1.2255486,5.065051 -3.928146,20.266388 20.1231162,20.266388 3.295272,0 6.724541,-0.276238 9.814696,-1.505909 1.958404,-0.779239 3.731275,-1.996542 4.963008,-3.726122 0.998786,-1.404897 1.582184,-3.04171 1.974896,-4.707384 0.346328,-1.473957 0.528769,-2.98502 0.917357,-4.4497 0.296853,-1.121444 0.759655,-2.307825 1.789363,-2.949975 1.133813,-0.708118 2.975743,-0.750378 4.204384,-0.19481 0.521554,0.23604 0.954464,0.612259 1.28327,1.078153 0.756562,1.076092 0.993632,2.46862 1.233795,3.733337 0.306129,1.603829 0.575152,3.221059 1.13072,4.762013 0.624628,1.733703 1.619291,3.30558 3.031403,4.503299 1.950158,1.655367 4.455885,2.501603 6.937904,2.95719 2.043955,0.375189 4.131202,0.499908 6.20711,0.499908 24.050231,0 18.896537,-15.201337 20.123116,-20.266388 C 92.540657,49.936183 93.927001,48.468411 95,47.732463 V 42.602475 L 72.644303,27.22282 c -3.428237,-2.228458 -8.434536,-1.306977 -10.425924,1.918205"
       id="path6"
       inkscape:connector-curvature="0"
       style="fill:#d45500;fill-opacity:1" />
  </g>
</svg>
